<svg xmlns="http://www.w3.org/2000/svg" xmlns:xlink="http://www.w3.org/1999/xlink"><symbol id="sprite-button-arrow-next" fill="none" viewBox="0 0 18 34"><path stroke="currentColor" d="m1 1 16 16-16 16"/></symbol><use xlink:href="#sprite-button-arrow-next" width="18" height="34"/><view id="sprite-button-arrow-next-view" viewBox="0 0 18 34"/><symbol id="sprite-button-minus" fill="none" viewBox="0 0 20 2"><path stroke="currentColor" d="M20 1h-20"/></symbol><use xlink:href="#sprite-button-minus" width="20" height="2" y="34"/><view id="sprite-button-minus-view" viewBox="0 34 20 2"/><symbol id="sprite-button-plus" fill="none" viewBox="0 0 20 20"><path stroke="currentColor" d="M10 0v10m0 10v-10m0 0h10m-10 0h-10"/></symbol><use xlink:href="#sprite-button-plus" width="20" height="20" y="36"/><view id="sprite-button-plus-view" viewBox="0 36 20 20"/><symbol id="sprite-ruble-sign" fill="none" viewBox="0 0 14 20"><path fill="#102654" fill-rule="evenodd" d="M1.87 13.49v-5.4h2.8v5.4h5.13v2.85h-5.13v3.66h-2.8v-3.66h-1.87v-2.85z" clip-rule="evenodd"/><path fill="#102654" fill-rule="evenodd" d="M8.63 2.86h-3.96v5.24h3.96a2.6 2.6 0 0 0 2.57-2.62 2.6 2.6 0 0 0-2.57-2.62m-6.76-2.86v10.95h6.76c2.97 0 5.37-2.45 5.37-5.47s-2.4-5.48-5.37-5.48z" clip-rule="evenodd"/><path fill="#102654" d="M1.87 8.1h-1.87v2.85h1.87z"/></symbol><use xlink:href="#sprite-ruble-sign" width="14" height="20" y="56"/><view id="sprite-ruble-sign-view" viewBox="0 56 14 20"/><symbol id="sprite-social-ok" fill="none" viewBox="0 0 10 17"><path fill="currentColor" d="M4.68 2.89c.9 0 1.63.75 1.63 1.68s-.73 1.68-1.63 1.68-1.63-.75-1.63-1.68.73-1.68 1.63-1.68m0 5.74a4 4 0 0 0 3.94-4.06 4 4 0 0 0-3.94-4.06 4 4 0 0 0-3.93 4.06 4 4 0 0 0 3.93 4.06m1.6 3.31a7 7 0 0 0 2.28-.97c.53-.35.7-1.09.36-1.64a1.13 1.13 0 0 0-1.6-.38 4.9 4.9 0 0 1-5.29 0 1.13 1.13 0 0 0-1.59.38 1.2 1.2 0 0 0 .37 1.64q1.07.69 2.28.97l-2.2 2.27a1.2 1.2 0 0 0 0 1.68 1.14 1.14 0 0 0 1.63 0l2.16-2.23 2.16 2.23c.45.47 1.18.47 1.63 0s.45-1.21 0-1.68z"/></symbol><use xlink:href="#sprite-social-ok" width="10" height="17" y="76"/><view id="sprite-social-ok-view" viewBox="0 76 10 17"/><symbol id="sprite-social-reddit" fill="none" viewBox="0 0 15 15"><path fill="currentColor" d="M8.85.56c-.44 0-.86.22-1.13.55s-.42.72-.52 1.14a10 10 0 0 0-.24 2.1 7 7 0 0 0-3.33 1.02 2 2 0 0 0-1.28-.5c-.5 0-.98.23-1.33.67-.68.85-.6 2.24.18 3.06a4 4 0 0 0-.08.78c0 2.8 2.86 5.06 6.38 5.06s6.38-2.26 6.38-5.06q0-.39-.08-.78c.78-.82.86-2.21.18-3.06a1.7 1.7 0 0 0-1.33-.66 2 2 0 0 0-1.28.49 7 7 0 0 0-3.31-1.03 8 8 0 0 1 .18-1.75q.12-.46.27-.64c.1-.13.17-.18.34-.18.36 0 .4.12.63.4q.14.23.44.5c.2.17.5.32.82.32v-1.22c-.09 0-.1 0-.17-.05l-.27-.35c-.25-.32-.73-.81-1.45-.81m3.51.11c-.84 0-1.52.77-1.52 1.71 0 .95.68 1.71 1.52 1.71s1.52-.76 1.52-1.7c0-.95-.68-1.72-1.52-1.72m0 .6c.54 0 .98.5.98 1.11s-.44 1.1-.98 1.1-.98-.49-.98-1.1.44-1.1.98-1.1m-4.86 4.01c3 0 5.52 1.88 5.52 4.1s-2.53 4.08-5.52 4.08-5.52-1.87-5.52-4.09 2.53-4.09 5.52-4.09m-5.13.56q.22 0 .45.11a5 5 0 0 0-1.26 1.6c-.2-.47-.15-1.06.1-1.37a1 1 0 0 1 .7-.34m10.27 0a1 1 0 0 1 .71.34c.25.31.3.9.1 1.37a5 5 0 0 0-1.26-1.6q.23-.1.45-.11m-7.3 1.52c-.53 0-.97.5-.97 1.1s.44 1.1.98 1.1.98-.5.98-1.1-.44-1.1-.98-1.1m4.32 0c-.54 0-.98.5-.98 1.1s.44 1.1.98 1.1.98-.5.98-1.1-.44-1.1-.98-1.1m-4.85 3.75c.35.8 1.41 1.58 2.69 1.58s2.36-.78 2.7-1.58c-.62.45-1.6.76-2.7.76s-2.06-.31-2.69-.76"/></symbol><use xlink:href="#sprite-social-reddit" width="15" height="15" y="93"/><view id="sprite-social-reddit-view" viewBox="0 93 15 15"/><symbol id="sprite-social-vk" fill="none" viewBox="0 0 13 8"><path fill="currentColor" d="M7.72 6.05c.45-.14 1.01.95 1.62 1.36.45.32.8.25.8.25l1.6-.02s.84-.05.45-.72c-.04-.06-.24-.5-1.2-1.4-1-.95-.87-.8.34-2.43q1.1-1.48.94-1.87c-.08-.25-.63-.18-.63-.18l-1.8.01q-.29-.01-.4.24s-.3.77-.67 1.43c-.8 1.38-1.13 1.45-1.26 1.37-.31-.2-.23-.8-.23-1.24 0-1.34.2-1.9-.4-2.04a3 3 0 0 0-.84-.09c-.65 0-1.2 0-1.5.16-.2.1-.37.33-.27.34.12.02.39.07.53.27.19.26.18.83.18.83s.11 1.58-.25 1.77c-.24.14-.58-.14-1.3-1.4-.36-.64-.64-1.35-.64-1.35s-.05-.13-.15-.2a1 1 0 0 0-.28-.11h-1.72s-.26.02-.35.13 0 .31 0 .31 1.34 3.19 2.87 4.79c1.4 1.47 2.98 1.38 2.98 1.38h.72s.22-.03.33-.15c.1-.1.1-.32.1-.32s-.02-.98.43-1.12"/></symbol><use xlink:href="#sprite-social-vk" width="13" height="8" y="108"/><view id="sprite-social-vk-view" viewBox="0 108 13 8"/></svg>